<svg width="153" height="40" viewBox="0 0 153 40" fill="none" xmlns="http://www.w3.org/2000/svg">
<path d="M15.9284 24.7225C15.8413 24.0305 15.9048 23.322 16.1167 22.6582C16.4156 21.7261 16.9476 20.8316 17.3313 19.9278C17.7432 18.9533 18.1339 17.9717 18.5082 16.9831C19.1461 15.3048 19.7487 13.6147 20.3607 11.927L14.0688 11.9082V28.1074H18.0586C16.9146 27.3565 16.1026 26.1301 15.9284 24.7225Z" fill="url(#paint0_linear_690_8464)"/>
<path d="M22.1472 11.9316H20.9633C21.0645 12.207 21.168 12.4871 21.2693 12.7673C21.8436 14.3302 22.3803 15.9073 22.957 17.4702C23.3995 18.6683 23.922 19.8147 24.4234 20.9798C24.5599 21.2952 24.6917 21.6107 24.8236 21.9284C25.1154 22.6393 25.4285 23.336 25.4285 24.1151C25.4285 25.7252 24.6258 27.1422 23.4042 28.0037C25.1296 27.7354 26.6807 26.9256 27.8624 25.7252C28.0248 25.5628 28.1849 25.4003 28.3261 25.2379C29.5289 23.8256 30.2468 21.9967 30.2468 20.0077C30.2468 15.5401 26.6148 11.9316 22.1472 11.9316Z" fill="url(#paint1_linear_690_8464)"/>
<path d="M14.6926 24.7227C14.6055 24.0307 14.669 23.3222 14.8809 22.6584C15.1798 21.7263 15.7118 20.8318 16.0955 19.9279C16.5074 18.9534 16.8981 17.9719 17.2724 16.9833C17.9103 15.305 18.5129 13.6149 19.1249 11.9272L14.0712 11.9131V28.1075H16.8228C15.6788 27.3567 14.8668 26.1303 14.6926 24.7227Z" fill="url(#paint2_linear_690_8464)"/>
<path d="M22.7946 11.9648C22.8934 12.2332 22.9899 12.4992 23.0888 12.7675C23.6631 14.3305 24.1998 15.9075 24.7765 17.4705C25.219 18.6686 25.7416 19.8149 26.2429 20.9801C26.3795 21.2955 26.5113 21.6109 26.6431 21.9287C26.935 22.6395 27.248 23.3363 27.248 24.1154C27.248 25.184 26.8879 26.1656 26.2924 26.9565C26.8644 26.6128 27.394 26.2009 27.8624 25.7254C28.0248 25.563 28.1849 25.4006 28.3261 25.2382C29.5289 23.8259 30.2468 21.9969 30.2468 20.0079C30.2468 15.7592 26.9585 12.2944 22.7969 11.9648H22.7946Z" fill="url(#paint3_linear_690_8464)"/>
<path d="M20.7514 36.8823C11.4467 36.8823 3.87671 29.3123 3.87671 20.0075C3.87671 10.7028 11.4467 3.13281 20.7514 3.13281C30.0562 3.13281 37.6262 10.7028 37.6262 20.0075C37.6262 29.3123 30.0562 36.8823 20.7514 36.8823ZM20.7514 5.20184C12.5883 5.20184 5.94574 11.8444 5.94574 20.0075C5.94574 28.1707 12.5883 34.8132 20.7514 34.8132C28.9146 34.8132 35.5571 28.1707 35.5571 20.0075C35.5571 11.8444 28.9146 5.20184 20.7514 5.20184Z" fill="url(#paint4_linear_690_8464)"/>
<path d="M35.5548 20.064C35.5242 28.2012 28.8957 34.8132 20.7491 34.8132C12.6024 34.8132 5.97399 28.2012 5.94339 20.064H3.87671C3.90731 29.3428 11.4632 36.8798 20.7491 36.8798C30.035 36.8798 37.5909 29.3405 37.6214 20.064H35.5548Z" fill="url(#paint5_linear_690_8464)"/>
<path d="M5.94571 19.9511C5.97631 11.8139 12.6047 5.20193 20.7514 5.20193C28.8981 5.20193 35.5265 11.8139 35.5571 19.9511H37.6238C37.5932 10.6723 30.0373 3.13525 20.7514 3.13525C11.4655 3.13525 3.90963 10.6723 3.87903 19.9511H5.94571Z" fill="url(#paint6_linear_690_8464)"/>
<path d="M51.8764 13.6858C55.3672 13.6858 58.2059 16.5081 58.2059 19.9988C58.2059 21.5547 57.6457 22.9835 56.7041 24.0851C56.5959 24.2122 56.4688 24.3393 56.3417 24.4641C55.2024 25.6222 53.6277 26.3283 51.8929 26.3283H45.561V13.667L51.8741 13.6858H51.8764ZM47.8066 24.0851H51.8764C54.1196 24.0851 55.9462 22.2585 55.9462 20.0153C55.9462 17.7721 54.1196 15.9455 51.8764 15.9455H47.8066V24.0851Z" fill="url(#paint7_linear_690_8464)"/>
<path d="M71.498 24.1039L72.6561 26.3659H70.1234L68.9653 24.1039L67.753 21.7336L67.6989 21.6253C67.3011 20.9733 66.595 20.5402 65.7805 20.5402H63.5208V26.3636H61.2588V13.7046H69.2524C70.194 13.7046 71.0437 14.0836 71.6581 14.7003C72.2724 15.3146 72.6538 16.1667 72.6538 17.1059C72.6538 18.4805 71.8393 19.6739 70.6648 20.2177C70.3564 20.3636 70.0316 20.4531 69.6879 20.4884L71.4957 24.1062L71.498 24.1039ZM69.2548 18.2805C69.4172 18.2805 69.5796 18.2452 69.7256 18.1722C70.1422 17.9909 70.4129 17.5767 70.4129 17.1247C70.4129 16.7081 70.1963 16.4186 70.0692 16.2915C69.9233 16.1455 69.6526 15.9666 69.2548 15.9666H63.5208V18.2993L69.2548 18.2805Z" fill="url(#paint8_linear_690_8464)"/>
<path d="M87.9208 26.3303H85.3881L84.23 24.0706L81.4619 18.645L78.6938 24.0706L77.5357 26.3303H75.0029L76.161 24.0706L81.4619 13.6689L86.7604 24.0706L87.9185 26.3303H87.9208Z" fill="url(#paint9_linear_690_8464)"/>
<path d="M102.915 13.667V26.3283H100.653V18.2617L98.4284 19.9612L96.5829 21.39L94.7375 19.9612L92.5131 18.2617V26.3283H90.2511V13.667L92.5131 15.4041L96.5829 18.5324L100.653 15.4041L102.915 13.667Z" fill="url(#paint10_linear_690_8464)"/>
<path d="M115.682 17.1766V17.1036C115.682 16.4704 115.157 15.9455 114.524 15.9455H109.388C108.755 15.9455 108.23 16.4704 108.23 17.1036V17.1766C108.23 17.8098 108.755 18.3347 109.388 18.3347H113.945C115.122 18.3347 116.169 18.8407 116.894 19.6363C116.949 19.6905 116.984 19.7446 117.04 19.7988C117.601 20.4861 117.944 21.3735 117.944 22.3315C117.944 24.5371 116.153 26.3283 113.947 26.3283H109.986C107.78 26.3283 105.989 24.5371 105.989 22.3315H108.251C108.251 23.2895 109.028 24.0686 109.986 24.0686H113.947C114.905 24.0686 115.701 23.2895 115.701 22.3315C115.701 21.3735 114.905 20.5944 113.947 20.5944H109.39C108.468 20.5944 107.637 20.2319 107.02 19.6363C106.858 19.4739 106.712 19.2927 106.587 19.0926C106.208 18.5512 105.989 17.8804 105.989 17.1577V17.0848C105.989 15.2041 107.51 13.667 109.39 13.667H114.526C116.407 13.667 117.944 15.2041 117.944 17.0848V17.1577L115.682 17.1766Z" fill="url(#paint11_linear_690_8464)"/>
<path d="M128.127 18.7513L133.607 26.3307H130.822L126.444 20.2884L123.243 23.2001V26.3283H120.981V13.667H123.243V20.1424L125.107 18.4429L126.79 16.9059L130.318 13.6693H133.665L128.132 18.7513H128.127Z" fill="url(#paint12_linear_690_8464)"/>
<path d="M149.123 13.6504L144.22 19.9987L143.949 20.3424V26.3117H141.687V20.38L141.379 20.0011L136.476 13.6527H139.334L142.805 18.1557L146.277 13.6527H149.116L149.123 13.6504Z" fill="url(#paint13_linear_690_8464)"/>
<path d="M113.947 20.5963C114.905 20.5963 115.701 21.3731 115.701 22.3335C115.701 23.2939 114.905 24.0706 113.947 24.0706H109.986C109.028 24.0706 108.251 23.2915 108.251 22.3335H105.989C105.989 24.539 107.78 26.3303 109.986 26.3303H113.947C116.153 26.3303 117.944 24.539 117.944 22.3335C117.944 21.4814 117.671 20.6858 117.217 20.0361H107.514C108.053 20.3916 108.696 20.5963 109.388 20.5963H113.945H113.947Z" fill="url(#paint14_linear_690_8464)"/>
<path d="M120.981 20.0337V26.3302H123.243V23.1996L126.444 20.2879L130.82 26.3302H133.607L129.054 20.0337H123.36L123.243 20.142V20.0337H120.981Z" fill="url(#paint15_linear_690_8464)"/>
<path d="M56.3441 24.4661C56.4712 24.339 56.5983 24.2119 56.7065 24.0871C57.6387 22.9926 58.1965 21.5779 58.2059 20.0361H55.9463C55.9368 22.2699 54.115 24.0871 51.8788 24.0871H47.809V20.0361H45.5658V26.3303H51.8976C53.6324 26.3303 55.2072 25.6242 56.3464 24.4661H56.3441Z" fill="url(#paint16_linear_690_8464)"/>
<path d="M61.2612 26.3656H63.5233V20.5422H65.783C66.5974 20.5422 67.3036 20.9753 67.7014 21.6273L67.7555 21.7356L68.9677 24.1059L70.1258 26.368H72.6585L71.5005 24.1059L69.6927 20.4881C70.0364 20.4528 70.3612 20.361 70.6696 20.2174C70.7825 20.1656 70.8908 20.102 70.9991 20.0361H61.2659V26.368L61.2612 26.3656Z" fill="url(#paint17_linear_690_8464)"/>
<path d="M102.915 20.0337H100.653V26.3279H102.915V20.0337Z" fill="url(#paint18_linear_690_8464)"/>
<path d="M94.8318 20.0337L96.583 21.3919L98.3343 20.0337H94.8318Z" fill="url(#paint19_linear_690_8464)"/>
<path d="M92.5156 20.0337H90.2535V26.3279H92.5156V20.0337Z" fill="url(#paint20_linear_690_8464)"/>
<path d="M141.69 20.3774V26.3114H143.949V20.342L144.192 20.0337H141.412L141.69 20.3774Z" fill="url(#paint21_linear_690_8464)"/>
<path d="M75.0052 26.3302H77.538L78.6961 24.0682L80.7533 20.0337H78.2206L76.1633 24.0682L75.0052 26.3302Z" fill="url(#paint22_linear_690_8464)"/>
<path d="M84.2324 24.0682L85.3882 26.3302H87.9209L86.7628 24.0682L84.7079 20.0337H82.1752L84.2324 24.0682Z" fill="url(#paint23_linear_690_8464)"/>
<defs>
<linearGradient id="paint0_linear_690_8464" x1="17.2159" y1="31.664" x2="17.2159" y2="20.5586" gradientUnits="userSpaceOnUse">
<stop stop-color="#B89B5A"/>
<stop offset="1" stop-color="#F9E0A8"/>
</linearGradient>
<linearGradient id="paint1_linear_690_8464" x1="25.605" y1="31.6639" x2="25.605" y2="20.5585" gradientUnits="userSpaceOnUse">
<stop stop-color="#B89B5A"/>
<stop offset="1" stop-color="#F9E0A8"/>
</linearGradient>
<linearGradient id="paint2_linear_690_8464" x1="16.5968" y1="27.8345" x2="16.5968" y2="12.9252" gradientUnits="userSpaceOnUse">
<stop stop-color="#B89B5A"/>
<stop offset="1" stop-color="#F9E0A8"/>
</linearGradient>
<linearGradient id="paint3_linear_690_8464" x1="26.5207" y1="26.4975" x2="26.5207" y2="15.0178" gradientUnits="userSpaceOnUse">
<stop stop-color="#B89B5A"/>
<stop offset="1" stop-color="#F9E0A8"/>
</linearGradient>
<linearGradient id="paint4_linear_690_8464" x1="4.32394" y1="20.0075" x2="152.329" y2="20.0075" gradientUnits="userSpaceOnUse">
<stop stop-color="#B89B5A"/>
<stop offset="1" stop-color="#F9E0A8"/>
</linearGradient>
<linearGradient id="paint5_linear_690_8464" x1="3.87906" y1="28.4719" x2="37.6214" y2="28.4719" gradientUnits="userSpaceOnUse">
<stop stop-color="#B89B5A"/>
<stop offset="1" stop-color="#F9E0A8" stop-opacity="0.5"/>
</linearGradient>
<linearGradient id="paint6_linear_690_8464" x1="37.6214" y1="11.5432" x2="3.87668" y2="11.5432" gradientUnits="userSpaceOnUse">
<stop stop-color="#B89B5A"/>
<stop offset="1" stop-color="#F9E0A8" stop-opacity="0.5"/>
</linearGradient>
<linearGradient id="paint7_linear_690_8464" x1="45.7423" y1="19.9988" x2="144.38" y2="19.9988" gradientUnits="userSpaceOnUse">
<stop stop-color="#B89B5A"/>
<stop offset="1" stop-color="#F9E0A8"/>
</linearGradient>
<linearGradient id="paint8_linear_690_8464" x1="45.9776" y1="20.0341" x2="144.616" y2="20.0341" gradientUnits="userSpaceOnUse">
<stop stop-color="#B89B5A"/>
<stop offset="1" stop-color="#F9E0A8"/>
</linearGradient>
<linearGradient id="paint9_linear_690_8464" x1="46.2131" y1="19.9984" x2="144.851" y2="19.9984" gradientUnits="userSpaceOnUse">
<stop stop-color="#B89B5A"/>
<stop offset="1" stop-color="#F9E0A8"/>
</linearGradient>
<linearGradient id="paint10_linear_690_8464" x1="46.4484" y1="19.9988" x2="145.086" y2="19.9988" gradientUnits="userSpaceOnUse">
<stop stop-color="#B89B5A"/>
<stop offset="1" stop-color="#F9E0A8"/>
</linearGradient>
<linearGradient id="paint11_linear_690_8464" x1="46.6839" y1="19.9988" x2="145.322" y2="19.9988" gradientUnits="userSpaceOnUse">
<stop stop-color="#B89B5A"/>
<stop offset="1" stop-color="#F9E0A8"/>
</linearGradient>
<linearGradient id="paint12_linear_690_8464" x1="46.9192" y1="19.9988" x2="145.557" y2="19.9988" gradientUnits="userSpaceOnUse">
<stop stop-color="#B89B5A"/>
<stop offset="1" stop-color="#F9E0A8"/>
</linearGradient>
<linearGradient id="paint13_linear_690_8464" x1="47.0674" y1="19.9799" x2="145.562" y2="19.9799" gradientUnits="userSpaceOnUse">
<stop stop-color="#B89B5A"/>
<stop offset="1" stop-color="#F9E0A8"/>
</linearGradient>
<linearGradient id="paint14_linear_690_8464" x1="111.965" y1="32.9752" x2="111.965" y2="20.7164" gradientUnits="userSpaceOnUse">
<stop stop-color="#B89B5A"/>
<stop offset="1" stop-color="#F9E0A8" stop-opacity="0.7"/>
</linearGradient>
<linearGradient id="paint15_linear_690_8464" x1="127.294" y1="32.9751" x2="127.294" y2="20.7163" gradientUnits="userSpaceOnUse">
<stop stop-color="#B89B5A"/>
<stop offset="1" stop-color="#F9E0A8" stop-opacity="0.7"/>
</linearGradient>
<linearGradient id="paint16_linear_690_8464" x1="51.8835" y1="32.9752" x2="51.8835" y2="20.7164" gradientUnits="userSpaceOnUse">
<stop stop-color="#B89B5A"/>
<stop offset="1" stop-color="#F9E0A8" stop-opacity="0.7"/>
</linearGradient>
<linearGradient id="paint17_linear_690_8464" x1="66.9599" y1="32.9752" x2="66.9599" y2="20.7164" gradientUnits="userSpaceOnUse">
<stop stop-color="#B89B5A"/>
<stop offset="1" stop-color="#F9E0A8" stop-opacity="0.7"/>
</linearGradient>
<linearGradient id="paint18_linear_690_8464" x1="101.783" y1="32.9751" x2="101.783" y2="20.7163" gradientUnits="userSpaceOnUse">
<stop stop-color="#B89B5A"/>
<stop offset="1" stop-color="#F9E0A8" stop-opacity="0.7"/>
</linearGradient>
<linearGradient id="paint19_linear_690_8464" x1="96.583" y1="32.9751" x2="96.583" y2="20.7163" gradientUnits="userSpaceOnUse">
<stop stop-color="#B89B5A"/>
<stop offset="1" stop-color="#F9E0A8" stop-opacity="0.7"/>
</linearGradient>
<linearGradient id="paint20_linear_690_8464" x1="91.3834" y1="32.9751" x2="91.3834" y2="20.7163" gradientUnits="userSpaceOnUse">
<stop stop-color="#B89B5A"/>
<stop offset="1" stop-color="#F9E0A8" stop-opacity="0.7"/>
</linearGradient>
<linearGradient id="paint21_linear_690_8464" x1="142.801" y1="32.9751" x2="142.801" y2="20.7163" gradientUnits="userSpaceOnUse">
<stop stop-color="#B89B5A"/>
<stop offset="1" stop-color="#F9E0A8" stop-opacity="0.7"/>
</linearGradient>
<linearGradient id="paint22_linear_690_8464" x1="77.8793" y1="32.9751" x2="77.8793" y2="20.7163" gradientUnits="userSpaceOnUse">
<stop stop-color="#B89B5A"/>
<stop offset="1" stop-color="#F9E0A8" stop-opacity="0.7"/>
</linearGradient>
<linearGradient id="paint23_linear_690_8464" x1="85.0469" y1="32.9751" x2="85.0469" y2="20.7163" gradientUnits="userSpaceOnUse">
<stop stop-color="#B89B5A"/>
<stop offset="1" stop-color="#F9E0A8" stop-opacity="0.7"/>
</linearGradient>
</defs>
</svg>
